<svg width="25" height="23" viewBox="0 0 25 23" fill="none" xmlns="http://www.w3.org/2000/svg">
<g clip-path="url(#clip0_7_251)">
<path d="M18.6875 17.1925C16.9069 18.4412 14.7387 19.133 12.5 19.1667C5.20834 19.1667 1.04167 11.5 1.04167 11.5C2.33739 9.27849 4.13452 7.33758 6.3125 5.8075M10.3125 4.06334C11.0295 3.90893 11.7636 3.83174 12.5 3.83334C19.7917 3.83334 23.9583 11.5 23.9583 11.5C23.326 12.5883 22.5719 13.6129 21.7083 14.5571M14.7083 13.5317C14.4222 13.8141 14.0772 14.0407 13.6939 14.1978C13.3106 14.355 12.8968 14.4395 12.4772 14.4463C12.0576 14.4531 11.6408 14.3821 11.2517 14.2375C10.8626 14.0929 10.5091 13.8777 10.2123 13.6047C9.9156 13.3316 9.68166 13.0064 9.52449 12.6485C9.36732 12.2905 9.29014 11.907 9.29754 11.521C9.30494 11.135 9.39678 10.7543 9.56758 10.4016C9.73838 10.0489 9.98464 9.73154 10.2917 9.46834M1.04167 0.958336L23.9583 22.0417" stroke="#757575" stroke-width="4" stroke-linecap="round" stroke-linejoin="round"/>
</g>
<defs>
<clipPath id="clip0_7_251">
<rect width="25" height="23" fill="white"/>
</clipPath>
</defs>
</svg>
