<svg width="14" height="17" viewBox="0 0 14 17" fill="none" xmlns="http://www.w3.org/2000/svg">
<path d="M4.53 5.34003C4.25386 5.34003 4.03 5.56389 4.03 5.84003C4.03 6.11617 4.25386 6.34003 4.53 6.34003V5.34003ZM9.53 5.84003H10.03C10.03 5.56389 9.80614 5.34003 9.53 5.34003V5.84003ZM9.03 10.84C9.03 11.1162 9.25386 11.34 9.53 11.34C9.80614 11.34 10.03 11.1162 10.03 10.84H9.03ZM3.67645 10.9865C3.48118 11.1817 3.48118 11.4983 3.67645 11.6936C3.87171 11.8888 4.18829 11.8888 4.38355 11.6936L3.67645 10.9865ZM4.53 6.34003H9.53V5.34003H4.53V6.34003ZM9.03 5.84003V10.84H10.03V5.84003H9.03ZM9.17645 5.48648L3.67645 10.9865L4.38355 11.6936L9.88355 6.19358L9.17645 5.48648Z" fill="#111111"/>
</svg>
